<svg xmlns="http://www.w3.org/2000/svg" width="400" height="400" viewBox="0 0 400 400"><rect width="100%" height="100%" fill="#6B3F69"/><path fill="#FFFFFF" d="M86.71 204.19v2.06h-7.8v-2.06l2.09-.96v-11.09l-2.09-.96v-2.07h7.8v2.07l-2.09.96v11.09zm17.9-11.28q2.26 0 3.41 1.12 1.15 1.13 1.15 3.68v8.54h-3.6v-7.63q0-1.51-.5-2.17t-1.51-.66q-1.39 0-1.97 1-.58 1.01-.58 2.91v6.55h-3.62v-7.63q0-.99-.22-1.61-.21-.62-.64-.92-.44-.3-1.11-.3-.98 0-1.55.5-.56.5-.79 1.46t-.23 2.36v6.14h-3.62v-13.1h2.78l.53 1.68h.12q.39-.6.95-1.04.56-.43 1.31-.66.74-.22 1.65-.22 1.47 0 2.44.5t1.52 1.46h.12q.65-.98 1.68-1.47 1.04-.49 2.28-.49m13.88 0q2.47 0 3.76 1.16 1.3 1.16 1.3 3.44v8.74h-2.52l-.7-1.78h-.09q-.55.7-1.14 1.16-.59.45-1.36.66-.77.2-1.87.2-1.15 0-2.06-.44-.92-.45-1.44-1.36-.53-.91-.53-2.3 0-2.07 1.49-3.1 1.48-1.03 4.44-1.15l2.18-.07v-.41q0-1.18-.53-1.65-.53-.46-1.49-.46-.88 0-1.82.28-.94.29-1.85.7l-1.05-2.47q1.03-.53 2.36-.84t2.92-.31m1.46 7.27-1.37.07q-1.7.05-2.37.55-.68.51-.68 1.42 0 .84.47 1.23.47.4 1.24.4 1.15 0 1.93-.67t.78-1.92zm11.42-7.27q1.37 0 2.28.51.92.52 1.52 1.38h.12l.31-1.65h3.07v13.2q0 1.84-.72 3.1t-2.17 1.91-3.69.65q-1.51 0-2.71-.18t-2.25-.61v-3.07q1.08.48 2.22.74t2.62.26q1.52 0 2.3-.69.78-.7.78-1.92v-.36q0-.29.03-.77.04-.48.09-.84h-.12q-.56.86-1.46 1.39t-2.24.53q-2.26 0-3.61-1.75-1.36-1.75-1.36-5.02 0-3.26 1.37-5.04 1.37-1.77 3.62-1.77m1.18 2.85q-.79 0-1.36.46-.56.45-.84 1.34-.27.89-.27 2.21 0 1.97.63 2.93.64.96 1.91.96.72 0 1.23-.22.5-.21.81-.63t.47-1.07.16-1.54v-.53q0-1.32-.27-2.18-.26-.86-.86-1.3-.6-.43-1.61-.43m15.22-2.85q1.82 0 3.14.68t2.03 2.02q.71 1.33.71 3.25v1.75h-8.43q.05 1.49.91 2.34.87.85 2.48.85 1.22 0 2.23-.24t2.06-.72v2.71q-.96.48-2.03.71-1.06.23-2.65.23-1.94 0-3.44-.72t-2.37-2.22q-.86-1.5-.86-3.76 0-2.3.78-3.82.78-1.53 2.18-2.3 1.41-.76 3.26-.76m.09 2.56q-1.08 0-1.75.69-.67.68-.79 2.03h4.94q0-.8-.26-1.4-.27-.6-.81-.96t-1.33-.36m30.48-6.36v17.14h-4.61l-7.46-12.96h-.1q.05.82.09 1.63.03.82.07 1.63.04.82.06 1.64v8.06h-3.24v-17.14h4.58l7.44 12.84h.08q-.03-.79-.05-1.58l-.06-1.57q-.04-.78-.06-1.57v-8.12zm16.01 10.56q0 1.64-.44 2.91-.45 1.27-1.28 2.13-.82.87-2 1.32-1.18.46-2.66.46-1.4 0-2.55-.46-1.15-.45-1.99-1.32-.84-.86-1.32-2.13t-.48-2.91q0-2.18.77-3.69t2.21-2.29 3.43-.78q1.85 0 3.26.78 1.42.78 2.23 2.29.82 1.51.82 3.69m-9.02 0q0 1.28.27 2.19.28.91.87 1.39.58.48 1.54.48.94 0 1.53-.48t.85-1.39.26-2.19q0-1.29-.27-2.18-.28-.89-.85-1.36-.58-.46-1.54-.46-1.39 0-2.03 1.03-.63 1.03-.63 2.97m17.56 3.96q.6 0 1.16-.12.55-.12 1.1-.28v2.66q-.58.24-1.43.42t-1.86.18q-1.17 0-2.1-.38-.92-.39-1.46-1.34-.54-.94-.54-2.62v-6.32h-1.71v-1.51l1.97-1.2 1.03-2.76h2.28v2.79h3.68v2.68h-3.68v6.32q0 .74.44 1.11.43.37 1.12.37m25.88 2.62h-3.96l-1.32-4.03h-6.05l-1.32 4.03h-3.96l6.02-17.21h4.51zm-6.12-7.1-1.2-3.72-.3-1.08q-.21-.72-.4-1.48l-.31-1.24q-.1.56-.28 1.28t-.35 1.39q-.16.67-.28 1.13l-1.23 3.72zm14.83 7.1h-3.72l-4.99-13.1h3.79l2.45 7.72q.09.27.2.65.11.39.2.79.1.41.12.72h.08q.04-.31.14-.7.1-.4.22-.78.12-.39.21-.65l2.5-7.75h3.79zm12.6-13.34q2.47 0 3.77 1.16 1.29 1.16 1.29 3.44v8.74h-2.52l-.69-1.78h-.1q-.55.7-1.14 1.16-.59.45-1.36.66-.76.2-1.87.2-1.15 0-2.06-.44-.91-.45-1.44-1.36t-.53-2.3q0-2.07 1.49-3.1t4.44-1.15l2.18-.07v-.41q0-1.18-.53-1.65-.52-.46-1.48-.46-.89 0-1.83.28-.93.29-1.85.7l-1.05-2.47q1.03-.53 2.36-.84t2.92-.31m1.46 7.27-1.37.07q-1.7.05-2.37.55-.67.51-.67 1.42 0 .84.46 1.23.47.4 1.24.4 1.15 0 1.93-.67t.78-1.92zm7.08-7.03h3.63v13.1h-3.63zm1.83-5.16q.79 0 1.38.37.58.37.58 1.4 0 .99-.58 1.37-.59.38-1.38.38-.82 0-1.4-.38-.57-.38-.57-1.37 0-1.03.57-1.4.58-.37 1.4-.37m8.95.02v18.24h-3.63v-18.24zm9.38 4.9q2.47 0 3.77 1.16t1.3 3.44v8.74h-2.52l-.7-1.78h-.1q-.55.7-1.14 1.16-.58.45-1.35.66-.77.2-1.87.2-1.16 0-2.07-.44-.91-.45-1.44-1.36t-.53-2.3q0-2.07 1.49-3.1t4.44-1.15l2.19-.07v-.41q0-1.18-.53-1.65-.53-.46-1.49-.46-.89 0-1.82.28-.94.29-1.85.7l-1.06-2.47q1.03-.53 2.37-.84 1.33-.31 2.91-.31m1.47 7.27-1.37.07q-1.71.05-2.38.55-.67.51-.67 1.42 0 .84.47 1.23.47.4 1.23.4 1.16 0 1.94-.67t.78-1.92zm10.68-12.17v4.25q0 .74-.04 1.41-.04.68-.11 1.18h.15q.52-.82 1.41-1.38t2.31-.56q2.18 0 3.55 1.71 1.37 1.72 1.37 5.05 0 2.24-.63 3.76-.62 1.52-1.76 2.29t-2.63.77q-1.44 0-2.27-.52-.83-.51-1.35-1.14h-.24l-.6 1.42h-2.79v-18.24zm2.54 7.78q-.91 0-1.48.38-.56.38-.81 1.16t-.25 2.03v.43q0 1.85.56 2.81t2.03.96q1.17 0 1.77-1.01.6-1 .6-2.92 0-1.9-.58-2.87-.59-.97-1.84-.97m12.62-7.78v18.24h-3.62v-18.24zm9.12 4.9q1.83 0 3.15.68t2.03 2.02q.7 1.33.7 3.25v1.75h-8.42q.05 1.49.91 2.34.87.85 2.47.85 1.23 0 2.24-.24 1-.24 2.06-.72v2.71q-.96.48-2.03.71t-2.65.23q-1.94 0-3.44-.72t-2.37-2.22q-.86-1.5-.86-3.76 0-2.3.78-3.82.78-1.53 2.18-2.3 1.41-.76 3.25-.76m.1 2.56q-1.08 0-1.75.69-.67.68-.79 2.03h4.94q0-.8-.26-1.4-.27-.6-.81-.96t-1.33-.36"/></svg>