<svg xmlns="http://www.w3.org/2000/svg" width="400" height="400" viewBox="0 0 400 400"><rect width="100%" height="100%" fill="#7ADAA5"/><path fill="#FFFFFF" d="M90.76 206.775H79.27v-18.56h3.97v15.28h7.52zm15.83-7.12q0 1.76-.48 3.14t-1.38 2.32q-.89.93-2.17 1.43-1.27.49-2.88.49-1.51 0-2.76-.49-1.25-.5-2.16-1.43-.91-.94-1.43-2.32t-.52-3.14q0-2.37.83-4.01.84-1.64 2.4-2.48 1.56-.85 3.71-.85 2.01 0 3.54.85 1.53.84 2.42 2.48.88 1.64.88 4.01m-9.77 0q0 1.37.3 2.36.29.99.93 1.51t1.68.52q1.01 0 1.65-.52t.92-1.51q.29-.99.29-2.36 0-1.41-.3-2.37t-.92-1.47q-.63-.51-1.67-.51-1.51 0-2.19 1.12-.69 1.12-.69 3.23m17.65-7.34q1.48 0 2.47.56t1.64 1.5h.13l.34-1.8h3.32v14.3q0 2.01-.78 3.37-.78 1.37-2.35 2.07t-3.99.7q-1.64 0-2.94-.19-1.3-.2-2.44-.67v-3.33q1.17.52 2.4.81 1.24.29 2.85.29 1.64 0 2.48-.76.85-.75.85-2.08v-.39q0-.31.04-.83t.09-.91h-.13q-.6.94-1.57 1.51-.98.57-2.44.57-2.44 0-3.91-1.9t-1.47-5.43q0-3.54 1.48-5.46 1.49-1.93 3.93-1.93m1.27 3.1q-.85 0-1.46.49-.62.5-.91 1.46-.3.96-.3 2.39 0 2.13.69 3.17.68 1.04 2.06 1.04.78 0 1.33-.23.54-.24.88-.69.34-.46.51-1.16t.17-1.66v-.57q0-1.43-.29-2.37-.28-.94-.93-1.4-.65-.47-1.75-.47m23.53 4.24q0 1.76-.48 3.14t-1.37 2.32q-.9.93-2.18 1.43-1.27.49-2.88.49-1.51 0-2.76-.49-1.25-.5-2.16-1.43-.91-.94-1.43-2.32t-.52-3.14q0-2.37.84-4.01.83-1.64 2.39-2.48 1.56-.85 3.72-.85 2 0 3.53.85 1.54.84 2.42 2.48t.88 4.01m-9.77 0q0 1.37.3 2.36t.93 1.51q.64.52 1.68.52 1.01 0 1.65-.52t.92-1.51q.29-.99.29-2.36 0-1.41-.3-2.37t-.92-1.47q-.63-.51-1.67-.51-1.5 0-2.19 1.12t-.69 3.23m36.58-11.44v18.56h-4.99l-8.09-14.04h-.1q.05.88.09 1.77l.08 1.77q.04.88.06 1.76v8.74h-3.51v-18.56h4.97l8.06 13.91h.08l-.06-1.72q-.02-.86-.06-1.7-.04-.85-.07-1.71v-8.78zm17.34 11.44q0 1.76-.48 3.14t-1.38 2.32q-.89.93-2.17 1.43-1.27.49-2.88.49-1.51 0-2.76-.49-1.25-.5-2.16-1.43-.91-.94-1.43-2.32t-.52-3.14q0-2.37.83-4.01.84-1.64 2.4-2.48 1.56-.85 3.71-.85 2.01 0 3.54.85 1.53.84 2.42 2.48.88 1.64.88 4.01m-9.77 0q0 1.37.3 2.36.29.99.93 1.51t1.68.52q1.01 0 1.65-.52t.92-1.51q.29-.99.29-2.36 0-1.41-.3-2.37t-.92-1.47q-.63-.51-1.67-.51-1.51 0-2.19 1.12-.69 1.12-.69 3.23m19.03 4.29q.65 0 1.25-.13.59-.13 1.19-.32v2.89q-.62.26-1.54.46-.93.19-2.02.19-1.27 0-2.27-.42-1.01-.41-1.59-1.44-.59-1.03-.59-2.85v-6.83h-1.84v-1.64l2.13-1.3 1.12-2.99h2.47v3.01h3.98v2.92h-3.98v6.83q0 .81.47 1.21.46.41 1.22.41m28.03 2.83h-4.29l-1.43-4.37h-6.56l-1.43 4.37h-4.29l6.53-18.64h4.89zm-6.63-7.7-1.3-4.03-.33-1.17q-.22-.78-.43-1.6-.21-.81-.34-1.33-.1.59-.29 1.37-.2.78-.38 1.51t-.31 1.22l-1.33 4.03zm16.06 7.7h-4.03l-5.4-14.2h4.1l2.66 8.38q.1.28.22.7.11.41.22.86.1.44.13.78h.08q.05-.34.15-.77.11-.43.24-.85.13-.41.23-.7l2.7-8.4h4.11zm13.65-14.46q2.68 0 4.09 1.26 1.4 1.27 1.4 3.74v9.46h-2.73l-.75-1.92h-.11q-.6.75-1.23 1.24-.64.5-1.47.72t-2.03.22q-1.25 0-2.24-.48-.98-.48-1.56-1.47-.57-.99-.57-2.5 0-2.23 1.61-3.35 1.62-1.12 4.81-1.25l2.37-.08v-.44q0-1.27-.57-1.78t-1.61-.51q-.97 0-1.98.32-1.01.31-2 .75l-1.15-2.68q1.12-.57 2.57-.91 1.44-.34 3.15-.34m1.59 7.88-1.48.08q-1.85.05-2.58.6-.72.54-.72 1.53 0 .91.5 1.34.51.43 1.34.43 1.25 0 2.1-.73.84-.73.84-2.08zm7.67-7.62h3.93v14.2h-3.93zm1.98-5.59q.85 0 1.49.41.64.4.64 1.52 0 1.06-.64 1.48t-1.49.42q-.89 0-1.51-.42-.63-.42-.63-1.48 0-1.12.63-1.52.62-.41 1.51-.41m9.69.03v19.76h-3.92v-19.76zm10.17 5.3q2.68 0 4.08 1.26 1.41 1.27 1.41 3.74v9.46h-2.73l-.76-1.92h-.1q-.6.75-1.24 1.24-.63.5-1.47.72-.83.22-2.02.22-1.25 0-2.24-.48t-1.56-1.47-.57-2.5q0-2.23 1.61-3.35t4.81-1.25l2.37-.08v-.44q0-1.27-.58-1.78-.57-.51-1.61-.51-.96 0-1.97.32-1.02.31-2.01.75l-1.14-2.68q1.12-.57 2.56-.91t3.16-.34m1.59 7.88-1.49.08q-1.84.05-2.57.6-.73.54-.73 1.53 0 .91.51 1.34t1.34.43q1.25 0 2.09-.73.85-.73.85-2.08zm11.57-13.18v4.6q0 .81-.04 1.54-.04.72-.12 1.27h.16q.57-.88 1.53-1.5.96-.61 2.5-.61 2.36 0 3.84 1.86 1.49 1.86 1.49 5.48 0 2.41-.68 4.06-.68 1.66-1.91 2.49-1.24.83-2.85.83-1.56 0-2.45-.56-.9-.56-1.47-1.23h-.26l-.65 1.53h-3.02v-19.76zm2.75 8.42q-.99 0-1.6.42t-.88 1.26q-.27.85-.27 2.2v.47q0 2 .61 3.04t2.19 1.04q1.28 0 1.93-1.09.65-1.1.65-3.18 0-2.05-.64-3.1-.64-1.06-1.99-1.06m13.68-8.42v19.76h-3.93v-19.76zm9.88 5.3q1.97 0 3.4.74 1.43.75 2.2 2.19t.77 3.52v1.9h-9.13q.05 1.61.99 2.53.94.93 2.68.93 1.32 0 2.42-.26 1.09-.26 2.23-.78v2.94q-1.04.52-2.19.76-1.16.25-2.88.25-2.1 0-3.73-.78-1.62-.78-2.56-2.41-.94-1.62-.94-4.06 0-2.5.85-4.15.84-1.65 2.37-2.48 1.52-.84 3.52-.84m.1 2.79q-1.17 0-1.9.74-.72.74-.85 2.19h5.35q0-.85-.28-1.5-.29-.65-.87-1.04-.59-.39-1.45-.39"/></svg>