<svg xmlns="http://www.w3.org/2000/svg" width="400" height="400" viewBox="0 0 400 400"><rect width="100%" height="100%" fill="#FFA500"/><path fill="#FFFFFF" d="M99.875 203.845q.39 0 .69.3l1.85 2.01q-1.54 1.91-3.79 2.92-2.25 1.02-5.4 1.02-2.81 0-5.06-.96-2.25-.97-3.84-2.68-1.6-1.72-2.45-4.1-.84-2.38-.84-5.19 0-2.86.91-5.23t2.56-4.08q1.65-1.72 3.95-2.67 2.29-.96 5.07-.96 2.77 0 4.91.91t3.65 2.38l-1.58 2.19q-.14.21-.36.37-.21.16-.6.16-.26 0-.54-.15t-.61-.37q-.34-.22-.77-.48-.44-.26-1.02-.48t-1.34-.37-1.76-.15q-1.69 0-3.1.61-1.41.6-2.43 1.75-1.01 1.14-1.57 2.8-.56 1.65-.56 3.77 0 2.13.6 3.79.61 1.67 1.64 2.8 1.03 1.14 2.43 1.75 1.4.6 3.01.6.96 0 1.74-.11.78-.1 1.44-.33.65-.23 1.24-.58.59-.36 1.16-.89.18-.16.37-.25.19-.1.4-.1m13.04-12.27q2 0 3.63.65 1.64.65 2.8 1.84 1.17 1.19 1.8 2.9.63 1.72.63 3.84 0 2.13-.63 3.85-.63 1.71-1.8 2.92-1.16 1.21-2.8 1.85-1.63.65-3.63.65-2.01 0-3.66-.65-1.64-.64-2.81-1.85-1.16-1.21-1.8-2.92-.64-1.72-.64-3.85 0-2.12.64-3.84.64-1.71 1.8-2.9 1.17-1.19 2.81-1.84 1.65-.65 3.66-.65m0 15.18q2.24 0 3.32-1.51 1.07-1.5 1.07-4.41 0-2.9-1.07-4.43-1.08-1.52-3.32-1.52-2.27 0-3.37 1.53-1.09 1.53-1.09 4.42t1.09 4.4q1.1 1.52 3.37 1.52m16.49 3.06h-4.33v-17.96h2.65q.84 0 1.1.79l.28 1.33q.47-.52.99-.96.51-.44 1.1-.75.59-.32 1.26-.5.67-.19 1.48-.19 1.7 0 2.79.92t1.64 2.44q.42-.89 1.05-1.53t1.38-1.04 1.6-.59q.85-.2 1.71-.2 1.48 0 2.64.46 1.15.45 1.94 1.33.79.87 1.2 2.13t.41 2.89v11.43h-4.32v-11.43q0-1.71-.75-2.58-.76-.87-2.21-.87-.66 0-1.23.23t-1 .66-.67 1.07q-.25.65-.25 1.49v11.43h-4.34v-11.43q0-1.8-.73-2.62-.72-.83-2.12-.83-.95 0-1.76.47-.81.46-1.51 1.27zm25.13-17.96h4.34v17.96h-4.34zm4.93-5.23q0 .56-.23 1.05-.22.49-.6.86t-.88.59q-.51.21-1.09.21-.56 0-1.06-.21-.5-.22-.86-.59-.37-.37-.59-.86t-.22-1.05q0-.58.22-1.08.22-.51.59-.88.36-.37.86-.58.5-.22 1.06-.22.58 0 1.09.22.5.21.88.58t.6.88q.23.5.23 1.08m7.56 6.02.3 1.42q.54-.54 1.14-1.01.61-.46 1.28-.78.68-.33 1.45-.51.77-.19 1.68-.19 1.47 0 2.6.5 1.14.5 1.9 1.4t1.16 2.16q.39 1.25.39 2.75v11.43h-4.32v-11.43q0-1.64-.75-2.54-.76-.91-2.3-.91-1.12 0-2.1.51t-1.85 1.38v12.99h-4.32v-17.96h2.64q.84 0 1.1.79m22.56 7.75q.8 0 1.4-.21.59-.22.99-.61.39-.38.59-.93.2-.54.2-1.19 0-1.33-.79-2.1-.8-.78-2.39-.78t-2.39.78q-.8.77-.8 2.1 0 .63.2 1.18.21.54.6.93.39.4 1 .62.6.21 1.39.21m4.88 10.23q0-.53-.31-.86-.32-.34-.86-.52t-1.27-.27-1.54-.13q-.81-.05-1.68-.08-.87-.04-1.69-.14-.72.4-1.16.94-.45.55-.45 1.27 0 .47.24.88.23.41.75.71t1.34.46q.82.17 2.01.17 1.21 0 2.08-.19.88-.18 1.45-.5.57-.33.83-.77.26-.45.26-.97m-.86-18.15h5.17v1.61q0 .77-.93.94l-1.61.3q.37.93.37 2.03 0 1.33-.54 2.41-.53 1.07-1.48 1.82-.94.76-2.23 1.17-1.28.41-2.77.41-.53 0-1.02-.05-.49-.06-.96-.14-.84.5-.84 1.13 0 .55.5.8t1.32.36q.82.1 1.87.13t2.16.11q1.1.09 2.15.31t1.87.69 1.32 1.29q.5.81.5 2.09 0 1.19-.59 2.31-.58 1.12-1.69 2-1.11.87-2.73 1.4-1.62.54-3.69.54-2.03 0-3.53-.4-1.51-.39-2.5-1.05-1-.65-1.49-1.51t-.49-1.78q0-1.26.76-2.11t2.09-1.36q-.72-.37-1.14-.98t-.42-1.61q0-.4.15-.83t.44-.85.73-.8q.43-.37 1.03-.67-1.37-.74-2.15-1.96-.77-1.23-.77-2.87 0-1.33.53-2.41.53-1.07 1.49-1.83.95-.77 2.25-1.17 1.31-.4 2.85-.4 1.15 0 2.17.24 1.01.23 1.85.69m31.73-5.59-1.17 2.23q-.21.36-.45.53-.23.17-.58.17-.37 0-.8-.27-.43-.28-1.02-.61-.6-.33-1.4-.6-.79-.27-1.88-.27-.98 0-1.71.23-.74.24-1.24.66-.49.42-.74 1.01-.24.58-.24 1.28 0 .89.49 1.49.5.59 1.33 1.01.82.42 1.87.76 1.05.33 2.15.71 1.1.37 2.15.87t1.88 1.26q.82.76 1.32 1.86.5 1.11.5 2.68 0 1.72-.59 3.21-.59 1.5-1.72 2.61-1.12 1.11-2.75 1.75t-3.73.64q-1.21 0-2.38-.24-1.17-.23-2.25-.67-1.07-.44-2.02-1.05-.94-.61-1.68-1.37l1.38-2.25q.18-.25.46-.41.28-.17.59-.17.44 0 .95.36t1.21.79q.7.44 1.63.8.94.36 2.25.36 2.01 0 3.12-.95 1.1-.96 1.1-2.74 0-1-.5-1.63t-1.32-1.06-1.87-.73q-1.05-.29-2.14-.64-1.08-.35-2.13-.84t-1.88-1.28q-.82-.79-1.32-1.97t-.5-2.91q0-1.39.55-2.7.56-1.31 1.61-2.33 1.05-1.01 2.59-1.62 1.54-.62 3.53-.62 2.24 0 4.13.7t3.22 1.96m11.81 4.69q2 0 3.63.65 1.64.65 2.8 1.84 1.17 1.19 1.8 2.9.63 1.72.63 3.84 0 2.13-.63 3.85-.63 1.71-1.8 2.92-1.16 1.21-2.8 1.85-1.63.65-3.63.65-2.01 0-3.65-.65-1.65-.64-2.81-1.85-1.17-1.21-1.81-2.92-.63-1.72-.63-3.85 0-2.12.63-3.84.64-1.71 1.81-2.9 1.16-1.19 2.81-1.84 1.64-.65 3.65-.65m0 15.18q2.24 0 3.32-1.51 1.08-1.5 1.08-4.41 0-2.9-1.08-4.43-1.08-1.52-3.32-1.52-2.27 0-3.37 1.53-1.09 1.53-1.09 4.42t1.09 4.4q1.1 1.52 3.37 1.52m20.11-15.18q2 0 3.63.65 1.64.65 2.8 1.84 1.17 1.19 1.8 2.9.63 1.72.63 3.84 0 2.13-.63 3.85-.63 1.71-1.8 2.92-1.16 1.21-2.8 1.85-1.63.65-3.63.65-2.01 0-3.66-.65-1.64-.64-2.8-1.85-1.17-1.21-1.81-2.92-.64-1.72-.64-3.85 0-2.12.64-3.84.64-1.71 1.81-2.9 1.16-1.19 2.8-1.84 1.65-.65 3.66-.65m0 15.18q2.24 0 3.32-1.51 1.07-1.5 1.07-4.41 0-2.9-1.07-4.43-1.08-1.52-3.32-1.52-2.27 0-3.37 1.53-1.09 1.53-1.09 4.42t1.09 4.4q1.1 1.52 3.37 1.52m15.91-14.11.3 1.42q.54-.54 1.14-1.01.61-.46 1.28-.78.67-.33 1.44-.51.77-.19 1.68-.19 1.47 0 2.61.5t1.9 1.4 1.16 2.16q.39 1.25.39 2.75v11.43h-4.32v-11.43q0-1.64-.76-2.54-.75-.91-2.29-.91-1.12 0-2.1.51t-1.85 1.38v12.99h-4.33v-17.96h2.65q.84 0 1.1.79m23.87 14.79q0-.54.2-1.03t.55-.84.84-.56 1.05-.21 1.04.21.84.56.57.84.21 1.03q0 .56-.21 1.04t-.57.83-.84.55q-.48.21-1.04.21t-1.05-.21q-.49-.2-.84-.55t-.55-.83-.2-1.04m8.31 0q0-.54.2-1.03t.55-.84.84-.56 1.05-.21 1.05.21q.48.21.84.56.35.35.56.84t.21 1.03q0 .56-.21 1.04t-.56.83q-.36.35-.84.55-.49.21-1.05.21t-1.05-.21q-.49-.2-.84-.55t-.55-.83-.2-1.04m8.31 0q0-.54.21-1.03.2-.49.55-.84t.84-.56 1.05-.21 1.04.21.84.56.57.84.21 1.03q0 .56-.21 1.04t-.57.83-.84.55q-.48.21-1.04.21t-1.05-.21q-.49-.2-.84-.55t-.55-.83q-.21-.48-.21-1.04"/></svg>